<svg width="91" height="28" viewBox="0 0 91 28" fill="none" xmlns="http://www.w3.org/2000/svg"><path d="M75.016 25.7V9.074h3.422v6.656h8.237V9.074h3.452V25.7h-3.452v-6.867h-8.237V25.7h-3.422zM54.12 17.447c0-5.06 3.634-8.765 8.6-8.765 2.575 0 4.362.874 5.815 2.862v-2.47h3.21V25.7h-3.21v-2.41c-1.635 1.989-3.3 2.802-5.814 2.802-4.997 0-8.6-3.645-8.6-8.645zm3.453.03c0 3.163 2.331 5.482 5.511 5.482 3.15 0 5.39-2.319 5.39-5.542 0-3.253-2.331-5.602-5.541-5.602-3.059 0-5.36 2.44-5.36 5.662zM39.3 20.61h3.422c.121 1.355 1.332 2.35 2.877 2.35 1.605 0 2.877-1.055 2.877-2.35 0-1.657-1.272-2.38-4.058-2.38v-2.38c2.362 0 3.452-.692 3.452-2.138 0-1.054-1-1.927-2.271-1.927-1.242 0-2.21.783-2.392 1.927h-3.271c.182-2.891 2.604-5.03 5.663-5.03 3.15 0 5.633 2.23 5.633 5.03 0 1.476-.94 2.741-2.393 3.133v.09c1.848.482 3.09 1.958 3.09 3.675 0 3.042-2.817 5.482-6.3 5.482-3.392 0-6.147-2.38-6.329-5.482zM21.636 25.7V9.074h3.422V20.88l8.358-11.807h3.482V25.7h-3.422V13.923L25.118 25.7h-3.482zM3.938 12.152l.06.03c.94-2.018 4.04-2.086 5.993-1.634 4.407 0 7.197 1.753 7.197 4.526.377.3-1.515-3.765-7.117-3.76-7.268-.005-8.98 11.487-8.98 5.342v-3.149c0-7.229 2.998-10.903 9.237-11.415l7.237-.573v3.073l-7.056.602c-4.421.392-6.541 2.62-6.571 6.958z" fill="#fff"/><path fill-rule="evenodd" clip-rule="evenodd" d="M10.222 26.065v-3.359h-.174c-3.081 0-5.58-2.485-5.58-5.55 0-3.064 2.499-5.549 5.58-5.549s5.58 2.485 5.58 5.55v.173h3.377v-.173c0-4.92-4.01-8.909-8.957-8.909-4.947 0-8.957 3.989-8.957 8.909 0 4.92 4.01 8.908 8.957 8.908h.174z" fill="#fff"/><ellipse cx="15.837" cy="22.915" rx="3.18" ry="3.163" fill="#fff"/></svg>