<svg width="40" height="40" viewBox="0 0 40 40" fill="none" xmlns="http://www.w3.org/2000/svg"><path d="M36.663 19.167c.008-1.097 0-1.36-.023-2.46-.109-5.109-.163-7.664-2.049-9.556-1.885-1.892-4.509-1.958-9.756-2.09a191.844 191.844 0 00-9.67 0c-5.248.132-7.872.198-9.757 2.09-1.885 1.892-1.94 4.447-2.049 9.556a115.122 115.122 0 000 4.919c.11 5.11.164 7.664 2.049 9.556 1.885 1.893 4.509 1.959 9.756 2.09 2.176.055 3.503.073 5.669.054" stroke="#000" stroke-opacity=".5" stroke-width="3" stroke-linecap="round" stroke-linejoin="round"/><path d="M11.667 13.333l4.903 2.9c2.859 1.69 4.002 1.69 6.86 0l4.904-2.9" stroke="#000" stroke-opacity=".5" stroke-width="3" stroke-linecap="round" stroke-linejoin="round"/><path d="M26.75 25A5.833 5.833 0 1035 33.25M26.75 25A5.833 5.833 0 0135 33.25M26.75 25L35 33.25" stroke="#000" stroke-opacity=".5" stroke-width="3"/></svg>