<svg width="40" height="40" viewBox="0 0 40 40" fill="none" xmlns="http://www.w3.org/2000/svg"><path d="M20.455.516a8.853 8.853 0 018.398 8.841v9.852l-.012.456A8.852 8.852 0 0120 28.06l-.456-.01a8.854 8.854 0 01-8.396-8.842V9.357A8.853 8.853 0 0120 .505l.455.011zM20 2.08a7.278 7.278 0 00-7.278 7.278v9.852a7.279 7.279 0 1014.556 0V9.357A7.278 7.278 0 0020 2.08zm0 4.062c.652 0 1.18.53 1.18 1.181v2.65a1.18 1.18 0 01-2.36 0v-2.65c0-.652.528-1.18 1.18-1.18zM21.789 35.664a.787.787 0 011.145 1.08l-2.36 2.505a.789.789 0 01-1.146 0l-2.36-2.505a.787.787 0 011.144-1.08L20 37.56l1.789-1.897zm0-3.758a.787.787 0 011.145 1.08l-2.36 2.505a.789.789 0 01-1.146 0l-2.36-2.505a.787.787 0 011.144-1.08L20 33.803l1.789-1.897z" fill="#fff"/></svg>