<svg width="2293" height="1542" viewBox="0 0 2293 1542" fill="none" xmlns="http://www.w3.org/2000/svg"><g opacity=".3"><ellipse cx="2011.05" cy="771" rx="771" ry="281.539" transform="rotate(90 2011.05 771)" fill="url(#prefix__paint0_linear_1228_804)" opacity=".8"/><ellipse cx="1721.48" cy="771" rx="771" ry="281.539" transform="rotate(90 1721.48 771)" fill="url(#prefix__paint1_linear_1228_804)" opacity=".7"/><ellipse cx="1432" cy="771" rx="771" ry="281.539" transform="rotate(90 1432 771)" fill="url(#prefix__paint2_linear_1228_804)" opacity=".6"/><ellipse cx="1142.05" cy="771" rx="771" ry="281.539" transform="rotate(90 1142.05 771)" fill="url(#prefix__paint3_linear_1228_804)" opacity=".5"/><ellipse cx="853.024" cy="771" rx="771" ry="281.539" transform="rotate(90 853.024 771)" fill="url(#prefix__paint4_linear_1228_804)" opacity=".4"/><ellipse cx="563.539" cy="771" rx="771" ry="281.539" transform="rotate(90 563.539 771)" fill="url(#prefix__paint5_linear_1228_804)" opacity=".3"/><ellipse cx="281.539" cy="771" rx="771" ry="281.539" transform="rotate(90 281.539 771)" fill="url(#prefix__paint6_linear_1228_804)" opacity=".2"/></g><defs><linearGradient id="prefix__paint0_linear_1228_804" x1="2011.05" y1="348.547" x2="2011.05" y2="942.047" gradientUnits="userSpaceOnUse"><stop stop-color="#2388FF"/><stop offset="1" stop-opacity="0"/></linearGradient><linearGradient id="prefix__paint1_linear_1228_804" x1="1721.48" y1="348.547" x2="1721.48" y2="942.047" gradientUnits="userSpaceOnUse"><stop stop-color="#2388FF"/><stop offset="1" stop-opacity="0"/></linearGradient><linearGradient id="prefix__paint2_linear_1228_804" x1="1432" y1="348.547" x2="1432" y2="942.047" gradientUnits="userSpaceOnUse"><stop stop-color="#2388FF"/><stop offset="1" stop-opacity="0"/></linearGradient><linearGradient id="prefix__paint3_linear_1228_804" x1="1142.05" y1="348.547" x2="1142.05" y2="942.047" gradientUnits="userSpaceOnUse"><stop stop-color="#2388FF"/><stop offset="1" stop-opacity="0"/></linearGradient><linearGradient id="prefix__paint4_linear_1228_804" x1="853.024" y1="348.547" x2="853.024" y2="942.047" gradientUnits="userSpaceOnUse"><stop stop-color="#2388FF"/><stop offset="1" stop-opacity="0"/></linearGradient><linearGradient id="prefix__paint5_linear_1228_804" x1="563.539" y1="348.547" x2="563.539" y2="942.047" gradientUnits="userSpaceOnUse"><stop stop-color="#2388FF"/><stop offset="1" stop-opacity="0"/></linearGradient><linearGradient id="prefix__paint6_linear_1228_804" x1="281.539" y1="348.547" x2="281.539" y2="942.047" gradientUnits="userSpaceOnUse"><stop stop-color="#2388FF"/><stop offset="1" stop-opacity="0"/></linearGradient></defs></svg>